<?xml version="1.0" encoding="iso-8859-1"?>
<!-- Generator: Adobe Illustrator 19.0.0, SVG Export Plug-In . SVG Version: 6.00 Build 0)  -->
<svg version="1.1" id="Capa_1" xmlns="http://www.w3.org/2000/svg" xmlns:xlink="http://www.w3.org/1999/xlink" x="0px" y="0px"
	 viewBox="0 0 512 512" style="enable-background:new 0 0 512 512;" xml:space="preserve">
<path style="fill:#DD352E;" d="M256,8.533c-131.721,0-239.369,102.929-246.997,232.738c3.106-0.375,6.374,0.947,7.415,4.847
	c4.275,15.889,9.429,31.479,13.329,47.462c1.425,5.854-5.53,11.332-10.436,8.021c3.738,26.65,12.459,53.606,26.581,75.179
	c14.251,21.751,34.167,37.751,49.271,58.573c2.227,3.072,1.331,6.025-0.768,7.979c43.375,37.444,99.823,60.134,161.604,60.134
	c136.67,0,247.467-110.797,247.467-247.467S392.67,8.533,256,8.533z"/>
<path style="fill:#FBCE9D;" d="M392.533,332.8L392.533,332.8c5.922-5.922,10.061-13.517,11.17-21.82
	c8.499-63.369-29.116-165.538-52.762-208.427c-15.42-27.964-41.395-49.05-72.422-56.593c-16.93-4.122-28.834-3.209-28.834-3.209
	s-51.268,0-51.268,51.268c0,0,0,51.268,51.268,51.268c0,0,17.69,0,31.898-10.581c6.605-4.915,16.077-1.886,18.62,5.948l0.085,0.273
	c0.725,2.33,0.478,4.804-0.29,7.117c-4.855,14.558-29.423,79.377-9.865,125.022c-32.265-45.747-132.719-45.329-170.667,0
	c0-18.859-49.041-33.468-110.327-33.476c-0.358,5.427-0.606,10.889-0.606,16.41c0,75.102,33.502,142.336,86.315,187.716
	c32.563-0.145,58.752-7.714,58.752-17.05c35.149,35.149,101.385,35.149,136.533,0c36.506,0,55.057-12.911,66.586-25.668
	c7.876-8.713,23.851-17.101,35.593-16.998c14.242,0.119,25.822-11.392,25.822-25.6C418.133,344.26,406.673,332.8,392.533,332.8z"/>
<g>
	<path style="fill:#4D007E;" d="M204.8,366.933h-51.2c-4.71,0-8.533-3.823-8.533-8.533s3.823-8.533,8.533-8.533h51.2
		c1.186-0.009,30.379-0.674,52.907-30.72c2.833-3.755,8.175-4.54,11.947-1.707c3.772,2.825,4.531,8.175,1.707,11.947
		C243.524,366.507,206.37,366.933,204.8,366.933z"/>
	<path style="fill:#4D007E;" d="M341.325,290.133c-1.28,0-2.586-0.29-3.814-0.896c-4.215-2.108-5.922-7.236-3.814-11.452
		c19.866-39.731-8.38-102.946-8.67-103.586c-1.946-4.284-0.051-9.344,4.241-11.298c4.284-1.946,9.344-0.06,11.298,4.233
		c1.314,2.884,31.923,71.245,8.397,118.289C347.469,288.41,344.457,290.133,341.325,290.133z"/>
	<path style="fill:#4D007E;" d="M307.2,324.267c-4.71,0-8.533-3.823-8.533-8.533c0-15.505-10.914-32.137-15.113-37.239
		c-2.995-3.635-2.483-9.011,1.152-12.015c3.635-3.004,9.011-2.492,12.015,1.152c0.777,0.947,19.012,23.356,19.012,48.102
		C315.733,320.444,311.91,324.267,307.2,324.267z"/>
	<path style="fill:#4D007E;" d="M290.125,435.2c-1.792,0-3.593-0.563-5.137-1.724c-3.763-2.842-4.514-8.192-1.673-11.947
		c0.102-0.137,10.402-13.833,16.427-24.619c2.295-4.113,7.492-5.598,11.614-3.294c4.113,2.296,5.589,7.492,3.294,11.605
		c-6.605,11.827-17.254,25.984-17.707,26.581C295.27,434.031,292.71,435.2,290.125,435.2z"/>
	<path style="fill:#4D007E;" d="M153.609,435.2c-2.586,0-5.137-1.169-6.818-3.388c-0.452-0.597-11.102-14.754-17.707-26.581
		c-2.295-4.113-0.819-9.31,3.294-11.605c4.113-2.313,9.31-0.828,11.614,3.294c6.033,10.82,16.324,24.482,16.427,24.619
		c2.842,3.763,2.091,9.114-1.673,11.955C157.201,434.637,155.392,435.2,153.609,435.2z"/>
	<path style="fill:#4D007E;" d="M256,512C114.842,512,0,397.158,0,256S114.842,0,256,0s256,114.842,256,256S397.158,512,256,512z
		 M256,17.067C124.254,17.067,17.067,124.254,17.067,256S124.254,494.933,256,494.933S494.933,387.746,494.933,256
		S387.746,17.067,256,17.067z"/>
	<path style="fill:#4D007E;" d="M290.133,435.2c-4.71,0-8.533-3.823-8.533-8.533s3.823-8.533,8.533-8.533
		c35.772,0,51.738-13.295,60.638-23.287c9.677-10.863,28.023-19.379,41.762-19.379c9.412,0,17.067-7.654,17.067-17.067
		c0-9.412-7.654-17.067-17.067-17.067c-4.71,0-8.533-3.823-8.533-8.533s3.823-8.533,8.533-8.533
		c18.825,0,34.133,15.309,34.133,34.133s-15.309,34.133-34.133,34.133c-8.815,0-22.647,6.511-29.013,13.662
		C346.146,425.711,322.142,435.2,290.133,435.2z"/>
	<path style="fill:#4D007E;" d="M403.49,336.922c-0.742,0-1.502-0.102-2.253-0.307c-4.548-1.246-7.228-5.931-5.99-10.479
		c15.258-55.936-24.977-170.846-51.78-219.469c-14.626-26.522-39.031-45.628-66.961-52.42c-15.232-3.703-26.086-2.978-26.197-2.987
		c-4.975,0.06-43.366,1.527-43.366,42.761c0.034,4.343,1.502,42.735,42.735,42.735c0.119,0,15.155-0.213,26.82-8.9
		c5.308-3.951,12.228-5.103,18.526-3.089c6.298,2.014,11.273,6.98,13.295,13.286c1.306,4.19,1.186,8.457-0.23,12.706l-1.109,3.26
		c-6.451,18.756-26.078,75.844-9.003,115.686c1.724,4.019,0.128,8.678-3.678,10.812s-8.619,1.033-11.136-2.534
		c-12.518-17.749-38.741-29.116-70.135-30.413c-35.9-1.476-70.025,10.667-87.014,30.976c-2.304,2.756-6.076,3.78-9.455,2.543
		c-3.379-1.229-5.623-4.437-5.623-8.021c0-8.465-35.951-24.943-101.862-24.943c-4.71,0-8.533-3.823-8.533-8.533
		s3.823-8.533,8.533-8.533c46.532,0,95.94,8.678,112.853,27.401c21.777-18.91,55.663-29.389,91.81-27.938
		c23.595,0.973,44.919,7.151,61.269,17.314c-4.548-40.064,10.24-83.072,15.838-99.362l1.067-3.115
		c0.316-0.947,0.324-1.604,0.239-1.886c-0.546-1.681-1.681-2.244-2.321-2.449c-0.631-0.213-1.886-0.401-3.132,0.521
		c-16.299,12.143-36.173,12.279-37.009,12.279c-47.3,0-59.802-39.117-59.802-59.802c0-47.3,39.117-59.802,59.802-59.802
		c-0.119-0.009,12.809-0.939,30.857,3.447c32.563,7.919,60.954,30.063,77.875,60.766c27.213,49.348,70.775,168.115,53.299,232.201
		C410.684,334.421,407.245,336.922,403.49,336.922z"/>
	<path style="fill:#4D007E;" d="M221.867,461.346c-24.107,0-48.222-7.287-66.662-21.854c-11.486,9.267-35.601,13.534-59.554,13.534
		c-4.71,0-8.533-3.823-8.533-8.533s3.823-8.533,8.533-8.533c29.175,0,46.447-6.579,49.468-10.214
		c0.333-3.081,2.313-5.769,5.222-6.963c3.191-1.323,6.861-0.589,9.301,1.852c31.991,31.983,92.476,31.983,124.467,0
		c3.328-3.337,8.738-3.337,12.066,0c3.337,3.337,3.337,8.73,0,12.066C277.069,451.797,249.472,461.346,221.867,461.346z"/>
</g>
<g>
</g>
<g>
</g>
<g>
</g>
<g>
</g>
<g>
</g>
<g>
</g>
<g>
</g>
<g>
</g>
<g>
</g>
<g>
</g>
<g>
</g>
<g>
</g>
<g>
</g>
<g>
</g>
<g>
</g>
</svg>
